<svg width="24" height="24" viewBox="0 0 24 24" fill="none" xmlns="http://www.w3.org/2000/svg">
<path d="M9.47354 16.0002L18.6545 19.2842C18.8088 19.3397 18.9735 19.3599 19.1366 19.3435C19.2996 19.3272 19.457 19.2745 19.5971 19.1895C19.7373 19.1045 19.8566 18.9892 19.9465 18.8521C20.0364 18.7151 20.0945 18.5596 20.1165 18.3972L21.9895 4.23923C22.1035 3.37723 21.2105 2.73423 20.4225 3.10923L2.62354 11.6052C1.74354 12.0252 1.80954 13.2952 2.72954 13.6222L5.16954 14.4902L6.49954 14.9572M12.9995 17.2602L11.0095 20.5862C10.3595 21.3942 9.05054 20.9372 9.05054 19.9032V17.2402C9.05057 16.7377 9.23979 16.2536 9.58054 15.8842L13.4515 11.6842" fill="white"/>
</svg>
