<svg width="8" height="8" viewBox="0 0 8 8" fill="none" xmlns="http://www.w3.org/2000/svg">
<path d="M4.288 3.52C4.59733 3.31733 4.93333 3.104 5.296 2.88C5.66933 2.656 6.032 2.48533 6.384 2.368L6.624 2.288L7.168 3.952L6.912 4.032C6.57067 4.13867 6.18133 4.21333 5.744 4.256C5.31733 4.288 4.91733 4.30933 4.544 4.32C4.84267 4.55467 5.152 4.81067 5.472 5.088C5.80267 5.35467 6.08 5.64267 6.304 5.952L6.464 6.176L5.04 7.184L4.88 6.976C4.66667 6.66667 4.48 6.31467 4.32 5.92C4.16 5.52533 4.00533 5.15733 3.856 4.816C3.71733 5.15733 3.56267 5.52533 3.392 5.92C3.232 6.31467 3.04533 6.66667 2.832 6.976L2.688 7.184L1.248 6.176L1.424 5.952C1.63733 5.64267 1.904 5.35467 2.224 5.088C2.55467 4.81067 2.87467 4.55467 3.184 4.32C2.81067 4.30933 2.40533 4.29333 1.968 4.272C1.54133 4.24 1.152 4.16 0.8 4.032L0.544 3.952L1.088 2.288L1.328 2.368C1.69067 2.48533 2.05333 2.656 2.416 2.88C2.77867 3.104 3.11467 3.31733 3.424 3.52C3.328 3.14667 3.22667 2.75733 3.12 2.352C3.024 1.94667 2.976 1.55733 2.976 1.184V0.912H4.736V1.184C4.736 1.55733 4.68267 1.94667 4.576 2.352C4.48 2.75733 4.384 3.14667 4.288 3.52Z" fill="#FF0000"/>
</svg>
